<svg xmlns="http://www.w3.org/2000/svg" viewBox="0 0 48 48" width="24" height="24"><path d="M44.699 11l-8.699 8.602s-2.602 0-5.199-2.602c-2.602-2.602-2.602-5.199-2.602-5.199l8.699-8.699c-4.898-1.203-10.797.398-14.398 4-5.398 5.398-.602 12.297-2 13.699-7.602 7.898-15.398 13.898-15.602 14.199-2.297 2.301-2.398 6-.199 8.199 2.199 2.199 5.902 2.102 8.199-.199.301-.301 6.703-8.398 14.203-15.898 1.398-1.402 8 3.699 13.598-1.801 3.5-3.602 5.199-9.402 4-14.301zm-35.301 30.102c-1.398 0-2.5-1.102-2.5-2.5 0-1.5 1.102-2.602 2.5-2.602 1.402 0 2.5 1.102 2.5 2.5s-1.098 2.602-2.5 2.602z" fill="#757575"/></svg>